HIERARCHY
ROOT Hips
{
	OFFSET 0.000000 100.481300 0.000000
	CHANNELS 6 Xposition Yposition Zposition Xrotation Yrotation Zrotation 
	JOINT Spine
	{
		OFFSET -0.279200 12.230698 -2.892100
		CHANNELS 3 Xrotation Yrotation Zrotation
		JOINT Spine1
		{
			OFFSET -0.232667 10.192268 -1.242267
			CHANNELS 3 Xrotation Yrotation Zrotation
			JOINT Spine1_split
			{
				OFFSET -0.232667 10.192268 -1.242267
				CHANNELS 3 Xrotation Yrotation Zrotation
				JOINT Spine2
				{
					OFFSET -0.232667 10.192268 -1.242267
					CHANNELS 3 Xrotation Yrotation Zrotation
					JOINT Neck
					{
						OFFSET -0.418800 17.814194 8.416900
						CHANNELS 3 Xrotation Yrotation Zrotation
						JOINT Head
						{
							OFFSET 0.000000 7.031097 3.806800
							CHANNELS 3 Xrotation Yrotation Zrotation
							JOINT HeadTop_End
							{
								OFFSET 0.000000 24.646606 12.978600
								CHANNELS 3 Xrotation Yrotation Zrotation
								End Site
								{
									OFFSET 0.000000 0.000000 0.000000
								}
							}
						}
					}
					JOINT LeftShoulder
					{
						OFFSET 8.476499 7.247704 -3.868750
						CHANNELS 3 Xrotation Yrotation Zrotation
						JOINT LeftShoulder_split
						{
							OFFSET 8.476499 7.247704 -3.868750
							CHANNELS 3 Xrotation Yrotation Zrotation
							JOINT LeftArm
							{
								OFFSET 9.308998 -2.777710 0.208600
								CHANNELS 3 Xrotation Yrotation Zrotation
								JOINT LeftForeArm
								{
									OFFSET 29.972298 0.000000 0.000000
									CHANNELS 3 Xrotation Yrotation Zrotation
									JOINT LeftHand
									{
										OFFSET 26.026505 0.000000 0.000000
										CHANNELS 3 Xrotation Yrotation Zrotation
										JOINT LeftHandThumb1
										{
											OFFSET 12.240501 -7.147949 9.207150
											CHANNELS 3 Xrotation Yrotation Zrotation
											JOINT LeftHandThumb2
											{
												OFFSET 4.138618 -2.389435 2.389433
												CHANNELS 3 Xrotation Yrotation Zrotation
												JOINT LeftHandThumb3
												{
													OFFSET 2.726913 -1.574387 1.574386
													CHANNELS 3 Xrotation Yrotation Zrotation
													JOINT LeftHandThumb4
													{
														OFFSET 3.941010 -2.275345 2.275342
														CHANNELS 3 Xrotation Yrotation Zrotation
														End Site
														{
															OFFSET 0.000000 0.000000 0.000000
														}
													}
												}
											}
										}
										JOINT LeftHandIndex1
										{
											OFFSET 24.424698 -1.985611 5.953459
											CHANNELS 3 Xrotation Yrotation Zrotation
											JOINT LeftHandIndex2
											{
												OFFSET 6.426697 0.000000 0.000000
												CHANNELS 3 Xrotation Yrotation Zrotation
												JOINT LeftHandIndex3
												{
													OFFSET 5.337898 0.000000 0.000000
													CHANNELS 3 Xrotation Yrotation Zrotation
													JOINT LeftHandIndex4
													{
														OFFSET 4.409401 0.000000 0.000000
														CHANNELS 3 Xrotation Yrotation Zrotation
														End Site
														{
															OFFSET 0.000000 0.000000 0.000000
														}
													}
												}
											}
										}
										JOINT LeftHandMiddle1
										{
											OFFSET 23.810104 0.000000 0.000000
											CHANNELS 3 Xrotation Yrotation Zrotation
											JOINT LeftHandMiddle2
											{
												OFFSET 7.176498 0.000000 0.000000
												CHANNELS 3 Xrotation Yrotation Zrotation
												JOINT LeftHandMiddle3
												{
													OFFSET 6.774902 0.000000 0.000000
													CHANNELS 3 Xrotation Yrotation Zrotation
													JOINT LeftHandMiddle4
													{
														OFFSET 5.403328 0.000000 0.000000
														CHANNELS 3 Xrotation Yrotation Zrotation
														End Site
														{
															OFFSET 0.000000 0.000000 0.000000
														}
													}
												}
											}
										}
										JOINT LeftHandRing1
										{
											OFFSET 22.908401 -0.839279 -6.020567
											CHANNELS 3 Xrotation Yrotation Zrotation
											JOINT LeftHandRing2
											{
												OFFSET 6.337502 0.000000 0.000000
												CHANNELS 3 Xrotation Yrotation Zrotation
												JOINT LeftHandRing3
												{
													OFFSET 5.779297 0.000000 0.000000
													CHANNELS 3 Xrotation Yrotation Zrotation
													JOINT LeftHandRing4
													{
														OFFSET 4.965698 0.000000 0.000000
														CHANNELS 3 Xrotation Yrotation Zrotation
														End Site
														{
															OFFSET 0.000000 0.000000 0.000000
														}
													}
												}
											}
										}
										JOINT LeftHandPinky1
										{
											OFFSET 20.037003 -1.530319 -10.950146
											CHANNELS 3 Xrotation Yrotation Zrotation
											JOINT LeftHandPinky2
											{
												OFFSET 5.254700 0.000000 0.000000
												CHANNELS 3 Xrotation Yrotation Zrotation
												JOINT LeftHandPinky3
												{
													OFFSET 4.810204 0.000000 0.000000
													CHANNELS 3 Xrotation Yrotation Zrotation
													JOINT LeftHandPinky4
													{
														OFFSET 3.647202 0.000000 0.000000
														CHANNELS 3 Xrotation Yrotation Zrotation
														End Site
														{
															OFFSET 0.000000 0.000000 0.000000
														}
													}
												}
											}
										}
									}
								}
							}
						}
					}
					JOINT RightShoulder
					{
						OFFSET -7.570500 7.247704 -3.868750
						CHANNELS 3 Xrotation Yrotation Zrotation
						JOINT RightShoulder_split
						{
							OFFSET -7.570500 7.247704 -3.868750
							CHANNELS 3 Xrotation Yrotation Zrotation
							JOINT RightArm
							{
								OFFSET -9.308998 -2.777710 0.208500
								CHANNELS 3 Xrotation Yrotation Zrotation
								JOINT RightForeArm
								{
									OFFSET -29.972300 0.000000 0.000000
									CHANNELS 3 Xrotation Yrotation Zrotation
									JOINT RightHand
									{
										OFFSET -26.026505 0.000000 0.000000
										CHANNELS 3 Xrotation Yrotation Zrotation
										JOINT RightHandThumb1
										{
											OFFSET -12.240601 -7.148026 9.207092
											CHANNELS 3 Xrotation Yrotation Zrotation
											JOINT RightHandThumb2
											{
												OFFSET -4.138618 -2.389435 2.389433
												CHANNELS 3 Xrotation Yrotation Zrotation
												JOINT RightHandThumb3
												{
													OFFSET -2.726974 -1.574417 1.574421
													CHANNELS 3 Xrotation Yrotation Zrotation
													JOINT RightHandThumb4
													{
														OFFSET -3.941010 -2.275345 2.275343
														CHANNELS 3 Xrotation Yrotation Zrotation
														End Site
														{
															OFFSET 0.000000 0.000000 0.000000
														}
													}
												}
											}
										}
										JOINT RightHandIndex1
										{
											OFFSET -24.424698 -1.985657 5.953444
											CHANNELS 3 Xrotation Yrotation Zrotation
											JOINT RightHandIndex2
											{
												OFFSET -6.426697 0.000000 0.000000
												CHANNELS 3 Xrotation Yrotation Zrotation
												JOINT RightHandIndex3
												{
													OFFSET -5.337898 0.000000 0.000000
													CHANNELS 3 Xrotation Yrotation Zrotation
													JOINT RightHandIndex4
													{
														OFFSET -4.409401 0.000000 0.000000
														CHANNELS 3 Xrotation Yrotation Zrotation
														End Site
														{
															OFFSET 0.000000 0.000000 0.000000
														}
													}
												}
											}
										}
										JOINT RightHandMiddle1
										{
											OFFSET -23.810097 0.000000 0.000000
											CHANNELS 3 Xrotation Yrotation Zrotation
											JOINT RightHandMiddle2
											{
												OFFSET -7.176498 0.000000 0.000000
												CHANNELS 3 Xrotation Yrotation Zrotation
												JOINT RightHandMiddle3
												{
													OFFSET -6.774902 0.000000 0.000000
													CHANNELS 3 Xrotation Yrotation Zrotation
													JOINT RightHandMiddle4
													{
														OFFSET -5.403328 0.000000 0.000000
														CHANNELS 3 Xrotation Yrotation Zrotation
														End Site
														{
															OFFSET 0.000000 0.000000 0.000000
														}
													}
												}
											}
										}
										JOINT RightHandRing1
										{
											OFFSET -22.908302 -0.839325 -6.020576
											CHANNELS 3 Xrotation Yrotation Zrotation
											JOINT RightHandRing2
											{
												OFFSET -6.337502 0.000000 0.000000
												CHANNELS 3 Xrotation Yrotation Zrotation
												JOINT RightHandRing3
												{
													OFFSET -5.779297 0.000000 0.000000
													CHANNELS 3 Xrotation Yrotation Zrotation
													JOINT RightHandRing4
													{
														OFFSET -4.965698 0.000000 0.000000
														CHANNELS 3 Xrotation Yrotation Zrotation
														End Site
														{
															OFFSET 0.000000 0.000000 0.000000
														}
													}
												}
											}
										}
										JOINT RightHandPinky1
										{
											OFFSET -20.037003 -1.530334 -10.950259
											CHANNELS 3 Xrotation Yrotation Zrotation
											JOINT RightHandPinky2
											{
												OFFSET -5.254700 0.000000 0.000000
												CHANNELS 3 Xrotation Yrotation Zrotation
												JOINT RightHandPinky3
												{
													OFFSET -4.810204 0.000000 0.000000
													CHANNELS 3 Xrotation Yrotation Zrotation
													JOINT RightHandPinky4
													{
														OFFSET -3.647202 0.000000 0.000000
														CHANNELS 3 Xrotation Yrotation Zrotation
														End Site
														{
															OFFSET 0.000000 0.000000 0.000000
														}
													}
												}
											}
										}
									}
								}
							}
						}
					}
				}
			}
		}
	}
	JOINT LeftUpLeg
	{
		OFFSET 15.427100 -6.655098 0.678600
		CHANNELS 3 Xrotation Yrotation Zrotation
		JOINT LeftLeg
		{
			OFFSET 4.081073 -39.591068 13.024000
			CHANNELS 3 Xrotation Yrotation Zrotation
			JOINT LeftFoot
			{
				OFFSET -4.081074 -37.707932 -15.979700
				CHANNELS 3 Xrotation Yrotation Zrotation
				JOINT LeftToeBase
				{
					OFFSET 5.346399 -15.068900 20.645000
					CHANNELS 3 Xrotation Yrotation Zrotation
					JOINT LeftToe_End
					{
						OFFSET 2.754700 0.931300 11.300900
						CHANNELS 3 Xrotation Yrotation Zrotation
						End Site
						{
							OFFSET 0.000000 0.000000 0.000000
						}
					}
				}
			}
		}
	}
	JOINT RightUpLeg
	{
		OFFSET -15.569500 -6.655098 0.678600
		CHANNELS 3 Xrotation Yrotation Zrotation
		JOINT RightLeg
		{
			OFFSET -4.081825 -39.591045 13.023800
			CHANNELS 3 Xrotation Yrotation Zrotation
			JOINT RightFoot
			{
				OFFSET 4.081824 -37.707954 -15.979600
				CHANNELS 3 Xrotation Yrotation Zrotation
				JOINT RightToeBase
				{
					OFFSET -5.346400 -15.068900 20.645000
					CHANNELS 3 Xrotation Yrotation Zrotation
					JOINT RightToe_End
					{
						OFFSET -2.754700 0.931300 11.300900
						CHANNELS 3 Xrotation Yrotation Zrotation
						End Site
						{
							OFFSET 0.000000 0.000000 0.000000
						}
					}
				}
			}
		}
	}
}
MOTION
Frames: 4
Frame Time: 0.016667
0.482413 93.051117 -0.727058 2.379524 -11.992500 -0.336089 9.429962 1.981580 0.256240 2.870545 4.029879 0.917349 0.000000 0.000000 0.000000 -9.001476 3.754921 1.727677 -3.884244 2.070162 -6.983151 5.913064 -0.105760 7.514577 -0.000001 0.000000 -0.000000 -1.295774 0.077918 -4.827720 0.000000 0.000000 0.000000 -3.652863 -0.069590 -73.007031 -0.000050 -15.717671 -0.000386 2.306660 0.164981 -5.013119 8.265287 -7.734429 18.880834 5.407288 20.572716 -9.835090 1.742540 3.611562 -0.678876 0.000001 -0.000000 -0.000002 0.273659 -4.246501 -3.910694 0.097441 -0.794744 -17.447638 -0.022298 -0.374355 -8.071655 -0.000000 0.000003 0.000001 0.248923 -1.909198 -12.464973 -0.126919 -0.878903 -17.469121 -0.119961 -0.934113 -18.480089 -0.000001 0.000001 -0.000001 0.311235 -1.760776 -17.977500 -0.194367 -1.090510 -20.983224 -0.031940 -0.974397 -17.928746 0.000001 -0.000000 -0.000001 0.622127 -0.700692 -24.132891 -0.024672 -0.945233 -17.465303 -0.471776 -0.844730 -16.565978 0.000000 0.000001 0.000002 -1.295767 -0.077837 4.827745 0.000000 0.000000 0.000000 3.909174 3.069876 67.997743 -0.000005 18.089263 0.000014 2.313890 -1.592966 -2.170064 8.265270 7.734451 -18.880805 5.407346 -20.572678 9.835186 1.742510 -3.611578 0.678889 0.000000 0.000000 0.000002 0.272408 4.252686 3.917186 0.097387 0.794944 17.452759 -0.022384 0.374612 8.076839 0.000000 -0.000001 -0.000001 0.250214 1.903641 12.463722 -0.126985 0.878943 17.470166 -0.119963 0.934154 18.481184 -0.000002 0.000000 0.000001 0.310436 1.762615 17.988978 -0.194389 1.090563 20.984708 -0.031871 0.974269 17.926154 0.000001 0.000000 0.000001 0.626365 0.701964 24.132122 -0.024624 0.945188 17.464138 -0.471750 0.844627 16.562835 -0.000001 -0.000001 -0.000002 -17.840772 11.896256 15.532320 20.717014 3.822180 1.353394 -3.292833 6.437707 -12.787268 -3.075478 -2.348379 -2.459405 -0.000000 -0.000001 0.000000 -10.388373 -8.159181 -9.069882 20.648015 -3.970657 -1.309055 -11.561505 -1.767961 10.782088 -5.415932 2.348529 2.459444 0.000000 0.000000 0.000000 
0.535980 93.042305 -0.704830 2.552219 -12.072684 -0.356793 9.404810 1.899406 0.285126 2.806021 4.034562 0.910477 0.000000 0.000000 0.000000 -9.063595 3.756300 1.734032 -4.162336 1.706294 -7.754407 6.269308 -1.220015 8.671231 -0.000001 0.000000 -0.000000 -1.298117 0.155754 -4.850347 0.000000 0.000000 0.000000 -3.189656 0.061113 -72.936742 -0.000018 -16.015504 -0.000201 3.331688 -0.184959 -5.638294 8.273792 -7.737128 18.864335 5.390309 20.552451 -9.830147 1.742514 3.611567 -0.678863 -0.000000 0.000000 -0.000002 0.270698 -4.248330 -3.950671 0.097115 -0.795841 -17.472105 -0.022392 -0.375025 -8.086784 0.000001 0.000000 -0.000000 0.246390 -1.912594 -12.540555 -0.127541 -0.880736 -17.507079 -0.120411 -0.935558 -18.509606 -0.000003 0.000001 0.000005 0.308634 -1.764636 -18.061515 -0.195024 -1.092077 -21.014976 -0.032749 -0.976948 -17.977065 0.000003 -0.000000 0.000003 0.621595 -0.702839 -24.174725 -0.025604 -0.948272 -17.523248 -0.472766 -0.848021 -16.635873 -0.000002 -0.000000 -0.000002 -1.275744 -0.132166 4.800655 0.000000 0.000000 0.000000 4.101211 3.268593 67.974493 0.000931 18.208666 -0.000177 2.345988 -1.166088 -2.037000 8.265272 7.734451 -18.880799 5.407347 -20.572682 9.835186 1.742513 -3.611579 0.678892 -0.000000 0.000001 0.000001 0.272067 4.256429 3.991452 0.096761 0.796872 17.496436 -0.022573 0.376381 8.115633 0.000000 0.000001 -0.000000 0.248835 1.912046 12.629762 -0.128506 0.883668 17.567535 -0.121152 0.937812 18.556594 0.000001 -0.000001 -0.000002 0.304028 1.771977 18.193764 -0.195452 1.093395 21.041614 -0.033981 0.980786 18.050047 0.000000 -0.000000 0.000002 0.625182 0.706775 24.225491 -0.026352 0.950793 17.571478 -0.474247 0.852941 16.741890 0.000000 -0.000000 -0.000000 -18.026505 11.850999 15.567545 20.814612 3.879906 1.361347 -3.361043 6.490455 -12.790310 -3.075521 -2.348366 -2.459404 -0.000000 -0.000001 0.000000 -10.576063 -8.149169 -9.045248 20.619364 -3.931988 -1.304094 -11.515660 -1.736494 10.798457 -5.415933 2.348565 2.459448 -0.000000 -0.000000 -0.000000 
0.680590 93.015259 -0.681597 2.726590 -12.124300 -0.387077 9.400816 1.800456 0.345607 2.763060 4.049149 0.909947 0.000000 0.000000 0.000000 -9.100127 3.757395 1.768803 -4.412551 1.409383 -8.672617 6.710946 -2.881739 10.234382 0.000000 0.000000 -0.000000 -1.303887 0.333881 -4.902907 0.000000 0.000000 0.000000 -3.050629 0.056953 -72.883357 -0.000018 -15.382366 -0.000255 4.405433 -1.213638 -6.241250 8.292454 -7.742950 18.828412 5.350606 20.509303 -9.813126 1.742518 3.611555 -0.678859 0.000001 -0.000000 0.000000 0.264211 -4.252227 -4.038107 0.096379 -0.798192 -17.525695 -0.022623 -0.376580 -8.119959 0.000002 0.000000 -0.000000 0.240803 -1.919966 -12.705943 -0.128834 -0.884778 -17.590391 -0.121461 -0.938708 -18.574052 0.000002 -0.000001 -0.000002 0.302892 -1.773009 -18.245314 -0.196340 -1.095555 -21.084500 -0.034537 -0.982490 -18.082916 -0.000001 -0.000000 0.000000 0.620439 -0.707532 -24.266327 -0.027734 -0.954872 -17.650034 -0.474910 -0.855132 -16.788870 -0.000000 -0.000000 -0.000004 -1.219722 -0.284617 4.724591 0.000000 0.000000 0.000000 4.623787 3.807456 67.911806 0.003489 18.543422 -0.000423 2.401647 -0.735410 -1.898757 8.265271 7.734452 -18.880801 5.407349 -20.572678 9.835186 1.742512 -3.611578 0.678887 -0.000000 0.000002 0.000003 0.271347 4.264612 4.154759 0.095370 0.801147 17.592657 -0.023136 0.380240 8.199599 0.000000 -0.000001 -0.000001 0.245842 1.930340 12.992151 -0.131766 0.893970 17.778817 -0.123867 0.945788 18.720263 -0.000001 0.000000 0.000000 0.296101 1.794271 18.638690 -0.197846 1.099617 21.166821 -0.038646 0.994849 18.318745 -0.000001 0.000001 0.000002 0.622698 0.717229 24.429133 -0.030325 0.963088 17.807162 -0.479747 0.870975 17.130379 -0.000001 -0.000000 -0.000000 -18.279149 11.803880 15.549646 21.013932 3.930294 1.375872 -3.490009 6.529865 -12.724874 -3.075496 -2.348354 -2.459390 -0.000000 -0.000000 0.000000 -10.783436 -8.126605 -9.084567 20.603091 -3.900569 -1.296399 -11.449819 -1.725224 10.884256 -5.415906 2.348545 2.459453 0.000000 0.000001 0.000000 
0.906609 92.972359 -0.656986 2.901912 -12.159720 -0.426172 9.418575 1.690421 0.430180 2.745826 4.068235 0.905524 0.000000 0.000000 0.000000 -9.107703 3.755930 1.814802 -4.798415 1.136500 -9.430944 7.361172 -4.778216 11.803093 -0.000000 -0.000001 0.000000 -1.311608 0.529197 -4.962477 0.000000 0.000000 0.000000 -2.922619 0.021941 -72.895672 0.000036 -14.822125 -0.000257 5.163005 -2.007072 -6.577200 8.316511 -7.750528 18.781907 5.299043 20.453582 -9.790622 1.742518 3.611556 -0.678914 -0.000000 0.000000 0.000001 0.255902 -4.257256 -4.150991 0.095367 -0.801282 -17.594991 -0.022913 -0.378545 -8.162721 -0.000002 -0.000001 -0.000002 0.237196 -1.930308 -12.919500 -0.130455 -0.890006 -17.697824 -0.122870 -0.942760 -18.657311 0.000003 0.000001 -0.000001 0.295433 -1.783785 -18.482717 -0.198010 -1.100018 -21.174394 -0.036908 -0.989666 -18.219586 -0.000003 -0.000000 -0.000003 0.618891 -0.713581 -24.384656 -0.030473 -0.963434 -17.813815 -0.477684 -0.864307 -16.986426 -0.000001 -0.000000 -0.000002 -1.134010 -0.519547 4.607378 0.000000 0.000000 0.000000 5.397551 4.600126 67.820432 0.007694 19.058815 -0.000943 2.479783 -0.301330 -1.755895 8.265268 7.734451 -18.880799 5.407346 -20.572678 9.835188 1.742511 -3.611579 0.678889 0.000000 0.000001 0.000001 0.270306 4.275208 4.365245 0.093648 0.806660 17.716773 -0.023887 0.385204 8.307190 -0.000001 -0.000001 -0.000001 0.241738 1.953906 13.457431 -0.135987 0.907067 18.049152 -0.127368 0.956039 18.929722 0.000001 -0.000000 -0.000001 0.286103 1.822936 19.208672 -0.200981 1.107614 21.328446 -0.044630 1.012869 18.662654 -0.000001 -0.000001 -0.000000 0.619388 0.730663 24.690603 -0.035459 0.978939 18.111199 -0.487008 0.894029 17.627501 -0.000001 -0.000001 -0.000000 -18.585356 11.757143 15.485939 21.300070 3.977909 1.395398 -3.672131 6.561297 -12.600424 -3.075533 -2.348372 -2.459406 -0.000000 -0.000001 0.000000 -11.009392 -8.092334 -9.181232 20.594094 -3.870523 -1.285062 -11.361874 -1.727422 11.030004 -5.415937 2.348518 2.459457 0.000000 0.000002 0.000000 
